<svg xmlns="http://www.w3.org/2000/svg" version="1.1" xmlns:xlink="http://www.w3.org/1999/xlink" xmlns:svgjs="http://svgjs.dev/svgjs" width="1440" height="560" preserveAspectRatio="none" viewBox="0 0 1440 560">
    <g mask="url(&quot;#SvgjsMask1003&quot;)" fill="none">
        <path d="M697.53 603.75C802.84 587.2 752.3 345.98 1027.21 333.29 1302.11 320.6 1513.37 123.1 1686.56 120.49" stroke="rgba(178, 73, 248, 0.24)" stroke-width="2"></path>
        <path d="M233.96 561.63C359.28 554.57 452.15 327.81 677.9 327.12 903.64 326.43 899.86 397.12 1121.83 397.12 1343.8 397.12 1453.41 327.33 1565.77 327.12" stroke="rgba(178, 73, 248, 0.24)" stroke-width="2"></path>
        <path d="M816.33 621.85C970.96 558.89 1001.73 85.95 1209.72 82.19 1417.72 78.43 1484.66 338.57 1603.12 350.99" stroke="rgba(178, 73, 248, 0.24)" stroke-width="2"></path>
        <path d="M183.22 669.54C394.26 639.8 505.93 149.07 855.51 145.33 1205.09 141.59 1356.12 284.59 1527.8 285.33" stroke="rgba(178, 73, 248, 0.24)" stroke-width="2"></path>
        <path d="M333.32 663.11C514.4 644.21 606.7 264.3 935.01 252.87 1263.33 241.44 1383.44 135.82 1536.71 135.27" stroke="rgba(178, 73, 248, 0.24)" stroke-width="2"></path>
    </g>
    <defs>
        <mask id="SvgjsMask1003">
            <rect width="1440" height="560" fill="#ffffff"></rect>
        </mask>
    </defs>
</svg>